# xmcd CD database file
#
# Track frame offsets:
#	150
#	5012
#	22809
#	44020
#	67630
#	88426
#	106119
#	131391
#	170316
#	184926
#
# Disc length: 2539 seconds
#
# Revision: 2
# Processed by: cddbd v1.5.1PL0 Copyright (c) Steve Scherf et al.
# Submitted via: CDex 1.51
#
DISCID=7809e90a
DTITLE=BUMP OF CHICKEN - THE LIVING DEAD
DYEAR=2000
DGENRE=Rock
TTITLE0=Opening
TTITLE1=グングニル
TTITLE2=ベストピクチャー
TTITLE3=続・くだらない唄
TTITLE4=ランプ
TTITLE5=K
TTITLE6=リリィ
TTITLE7=Ever lasting lie
TTITLE8=グロリアスレボリューション
TTITLE9=Ending
EXTD=YEAR: 2000
EXTT0=
EXTT1=
EXTT2=
EXTT3=
EXTT4=
EXTT5=
EXTT6=
EXTT7=
EXTT8=
EXTT9=
PLAYORDER=
